<svg width="224" height="224" viewBox="0 0 224 224" fill="none" xmlns="http://www.w3.org/2000/svg">
    <circle cx="112" cy="112" r="112" fill="#DBF11F" />
    <path
        d="M203.585 114.03L214.129 114.6L213.912 118.626C213.878 119.244 213.795 119.795 213.662 120.279C213.529 120.763 213.341 121.175 213.099 121.514C212.856 121.854 212.554 122.104 212.193 122.266C211.831 122.439 211.405 122.512 210.915 122.486C210.51 122.464 210.158 122.359 209.858 122.172C209.558 121.996 209.316 121.726 209.133 121.364C208.96 121.002 208.847 120.531 208.793 119.952L208.585 119.94C208.457 120.927 208.157 121.632 207.685 122.055C207.224 122.489 206.631 122.687 205.907 122.648C205.3 122.615 204.797 122.438 204.397 122.117C204.008 121.808 203.723 121.349 203.542 120.741C203.362 120.133 203.296 119.366 203.346 118.439L203.585 114.03ZM204.949 115.77L204.795 118.614C204.754 119.37 204.846 119.941 205.071 120.327C205.306 120.714 205.685 120.921 206.207 120.949C206.803 120.982 207.264 120.756 207.59 120.271C207.915 119.787 208.105 119.044 208.159 118.043L208.272 115.95L204.949 115.77ZM209.486 116.015L209.389 117.805C209.337 118.774 209.426 119.5 209.656 119.982C209.897 120.476 210.283 120.737 210.816 120.766C211.338 120.794 211.732 120.607 212 120.205C212.278 119.803 212.439 119.187 212.484 118.357L212.602 116.184L209.486 116.015Z"
        fill="black" />
    <path
        d="M201.927 128.852C202.059 128.095 202.297 127.444 202.642 126.898C202.995 126.364 203.439 125.933 203.973 125.604C204.505 125.285 205.12 125.079 205.819 124.984C206.516 124.901 207.279 124.931 208.11 125.077C209.328 125.29 210.301 125.671 211.028 126.221C211.765 126.772 212.271 127.44 212.546 128.224C212.83 129.01 212.893 129.86 212.733 130.774C212.608 131.489 212.374 132.114 212.031 132.65C211.699 133.187 211.261 133.619 210.716 133.946C210.18 134.286 209.552 134.506 208.83 134.607C208.119 134.71 207.333 134.686 206.471 134.536C205.631 134.389 204.892 134.151 204.257 133.823C203.632 133.498 203.124 133.089 202.733 132.599C202.342 132.108 202.078 131.547 201.939 130.917C201.798 130.296 201.794 129.608 201.927 128.852ZM203.355 129.134C203.245 129.764 203.304 130.327 203.531 130.822C203.759 131.316 204.136 131.729 204.663 132.059C205.2 132.391 205.884 132.63 206.714 132.775C207.565 132.924 208.311 132.93 208.953 132.793C209.592 132.667 210.109 132.405 210.503 132.009C210.906 131.624 211.162 131.117 211.273 130.486C211.379 129.877 211.314 129.319 211.078 128.812C210.851 128.317 210.464 127.898 209.918 127.553C209.37 127.219 208.665 126.977 207.804 126.826C207.173 126.716 206.599 126.686 206.081 126.736C205.574 126.788 205.13 126.911 204.75 127.104C204.38 127.299 204.074 127.565 203.831 127.902C203.597 128.25 203.438 128.661 203.355 129.134Z"
        fill="black" />
    <path
        d="M199.343 139.667C199.566 138.932 199.882 138.314 200.29 137.814C200.706 137.327 201.198 136.953 201.768 136.691C202.335 136.44 202.971 136.31 203.676 136.301C204.378 136.302 205.132 136.426 205.938 136.671C207.122 137.03 208.042 137.527 208.696 138.161C209.361 138.797 209.782 139.522 209.959 140.334C210.146 141.148 210.105 142 209.835 142.888C209.625 143.582 209.317 144.174 208.911 144.664C208.516 145.157 208.029 145.533 207.448 145.791C206.875 146.063 206.224 146.205 205.496 146.218C204.778 146.234 204 146.115 203.163 145.861C202.347 145.613 201.643 145.287 201.052 144.885C200.471 144.485 200.016 144.018 199.688 143.484C199.36 142.949 199.165 142.361 199.104 141.718C199.04 141.085 199.119 140.402 199.343 139.667ZM200.726 140.121C200.54 140.733 200.53 141.298 200.696 141.817C200.862 142.336 201.186 142.791 201.669 143.183C202.162 143.578 202.812 143.898 203.618 144.143C204.445 144.394 205.185 144.491 205.838 144.433C206.488 144.385 207.032 144.188 207.472 143.842C207.919 143.509 208.235 143.037 208.421 142.425C208.601 141.833 208.604 141.271 208.431 140.739C208.266 140.22 207.933 139.757 207.432 139.349C206.929 138.95 206.259 138.624 205.422 138.37C204.81 138.184 204.244 138.084 203.724 138.071C203.214 138.061 202.758 138.129 202.357 138.275C201.967 138.424 201.63 138.65 201.348 138.955C201.073 139.273 200.866 139.661 200.726 140.121Z"
        fill="black" />
    <path
        d="M197.351 146.295L207.014 150.553L206.311 152.149L201.787 150.155C201.75 150.769 201.782 151.383 201.884 151.999C201.991 152.629 202.156 153.232 202.38 153.809C202.6 154.395 202.874 154.936 203.204 155.431C203.534 155.926 203.901 156.35 204.305 156.703L203.511 158.504C203.052 158.091 202.644 157.626 202.29 157.109C201.935 156.591 201.636 156.04 201.393 155.454C201.155 154.883 200.976 154.309 200.858 153.732C200.735 153.165 200.675 152.626 200.679 152.115L200.488 152.031C200.282 152.5 200.033 152.891 199.743 153.206C199.458 153.535 199.132 153.8 198.764 153.999C198.397 154.198 197.981 154.336 197.516 154.411C197.048 154.496 196.526 154.528 195.952 154.508L193.796 154.362L194.596 152.547L196.233 152.761C196.885 152.815 197.452 152.785 197.933 152.671C198.415 152.557 198.836 152.329 199.197 151.986C199.557 151.644 199.884 151.141 200.176 150.477L200.557 149.614L196.648 147.891L197.351 146.295Z"
        fill="black" />
    <path
        d="M191.678 158.287L198.58 167.086L197.207 169.227L186.331 166.624L187.351 165.034L196.639 167.475L196.751 167.3L190.659 159.876L191.678 158.287ZM192.597 161.063L193.675 161.754L190.193 167.181L189.116 166.49L192.597 161.063Z"
        fill="black" />
    <path
        d="M179.937 173.997C180.452 173.414 181.003 172.968 181.588 172.66C182.174 172.351 182.776 172.186 183.394 172.163C184.02 172.146 184.655 172.273 185.299 172.543C185.951 172.821 186.601 173.245 187.248 173.817C187.904 174.396 188.417 174.999 188.788 175.626C189.153 176.261 189.373 176.897 189.45 177.535C189.536 178.18 189.476 178.81 189.273 179.428C189.069 180.045 188.724 180.629 188.236 181.181C187.862 181.604 187.456 181.943 187.018 182.197C186.589 182.458 186.149 182.625 185.7 182.698C185.252 182.771 184.808 182.742 184.369 182.61C183.923 182.487 183.501 182.256 183.102 181.918L183.881 180.407C184.258 180.754 184.644 180.953 185.04 181.004C185.437 181.07 185.82 181.024 186.188 180.865C186.556 180.706 186.878 180.471 187.153 180.159C187.407 179.872 187.599 179.542 187.727 179.172C187.855 178.801 187.891 178.398 187.833 177.964C187.777 177.544 187.614 177.101 187.343 176.634C187.065 176.175 186.655 175.705 186.111 175.225C185.416 174.611 184.76 174.209 184.144 174.021C183.528 173.847 182.958 173.848 182.432 174.024C181.907 174.216 181.437 174.547 181.02 175.019C180.603 175.49 180.363 175.947 180.3 176.389C180.237 176.832 180.3 177.251 180.491 177.647C180.683 178.058 180.967 178.445 181.345 178.807L180.114 179.79C179.713 179.422 179.382 179.015 179.12 178.571C178.866 178.133 178.716 177.666 178.671 177.17C178.618 176.682 178.692 176.171 178.893 175.638C179.095 175.104 179.442 174.557 179.937 173.997Z"
        fill="black" />
    <path
        d="M176.795 177.783L181.142 188.087L179.254 189.792L169.445 184.421L170.846 183.156L179.166 187.952L179.32 187.813L175.394 179.049L176.795 177.783ZM176.952 180.703L177.81 181.653L173.025 185.974L172.167 185.024L176.952 180.703Z"
        fill="black" />
    <path
        d="M167.964 185.455L174.176 193.995L172.765 195.021L166.553 186.481L167.964 185.455ZM167.588 185.728L168.473 186.944L163.582 190.502L162.698 189.286L167.588 185.728Z"
        fill="black" />
    <path
        d="M161.018 190.329L166.422 199.401L164.924 200.294L159.52 191.222L161.018 190.329ZM160.619 190.566L161.389 191.859L156.193 194.954L155.423 193.662L160.619 190.566Z"
        fill="black" />
    <path
        d="M109.883 204.567L109.191 215.104L105.167 214.84C104.55 214.799 104 214.71 103.517 214.571C103.035 214.433 102.625 214.24 102.289 213.993C101.952 213.747 101.705 213.442 101.547 213.079C101.378 212.715 101.31 212.288 101.342 211.799C101.369 211.394 101.478 211.043 101.668 210.746C101.848 210.448 102.12 210.209 102.485 210.03C102.849 209.861 103.321 209.753 103.901 209.706L103.915 209.498C102.93 209.359 102.228 209.051 101.811 208.574C101.382 208.108 101.191 207.513 101.239 206.789C101.278 206.182 101.461 205.681 101.786 205.286C102.1 204.9 102.562 204.62 103.172 204.447C103.782 204.273 104.55 204.217 105.476 204.277L109.883 204.567ZM108.127 205.911L105.285 205.724C104.529 205.674 103.957 205.76 103.569 205.98C103.179 206.211 102.967 206.587 102.933 207.109C102.894 207.705 103.115 208.168 103.596 208.499C104.076 208.83 104.817 209.028 105.817 209.094L107.909 209.231L108.127 205.911ZM107.829 210.445L106.041 210.327C105.072 210.264 104.346 210.344 103.86 210.569C103.364 210.804 103.098 211.187 103.063 211.719C103.029 212.241 103.211 212.638 103.611 212.91C104.009 213.192 104.623 213.361 105.453 213.416L107.625 213.558L107.829 210.445Z"
        fill="black" />
    <path
        d="M95.1572 202.747C95.9127 202.885 96.5622 203.129 97.1057 203.478C97.6367 203.835 98.0647 204.282 98.3895 204.818C98.7038 205.353 98.9055 205.97 98.9945 206.669C99.073 207.367 99.0365 208.13 98.8849 208.959C98.6624 210.176 98.2736 211.146 97.7186 211.869C97.1617 212.602 96.49 213.102 95.7036 213.371C94.9153 213.649 94.0647 213.705 93.1518 213.539C92.4383 213.408 91.8151 213.169 91.2821 212.823C90.7472 212.486 90.3183 212.045 89.9954 211.498C89.6601 210.959 89.4446 210.329 89.349 209.606C89.2514 208.895 89.2812 208.109 89.4385 207.248C89.592 206.409 89.8351 205.672 90.1677 205.039C90.4984 204.417 90.9106 203.912 91.4042 203.525C91.8978 203.138 92.4605 202.878 93.0922 202.744C93.7134 202.608 94.4018 202.609 95.1572 202.747ZM94.8639 204.174C94.2344 204.059 93.6714 204.113 93.1751 204.337C92.6788 204.56 92.2634 204.934 91.9289 205.459C91.5926 205.994 91.3486 206.676 91.1971 207.505C91.0417 208.354 91.03 209.101 91.162 209.743C91.2835 210.383 91.5411 210.902 91.9347 211.299C92.3159 211.705 92.8213 211.965 93.4509 212.081C94.0595 212.192 94.6181 212.131 95.1269 211.899C95.6232 211.675 96.0458 211.292 96.3945 210.748C96.7328 210.203 96.9806 209.5 97.1379 208.639C97.253 208.01 97.2874 207.436 97.2411 206.918C97.193 206.41 97.0737 205.966 96.8832 205.584C96.6909 205.213 96.4274 204.904 96.0927 204.659C95.7457 204.422 95.3361 204.26 94.8639 204.174Z"
        fill="black" />
    <path
        d="M84.228 199.996C84.9602 200.228 85.5741 200.551 86.0697 200.965C86.5519 201.386 86.9205 201.883 87.1757 202.456C87.4206 203.025 87.5435 203.663 87.5443 204.368C87.5349 205.069 87.4032 205.822 87.1492 206.626C86.7761 207.805 86.269 208.719 85.628 209.366C84.9837 210.024 84.2547 210.437 83.4409 210.605C82.6239 210.783 81.773 210.732 80.8881 210.452C80.1966 210.233 79.6081 209.918 79.1227 209.508C78.6341 209.107 78.2638 208.615 78.0119 208.032C77.7466 207.456 77.6117 206.804 77.6071 206.075C77.5994 205.357 77.7273 204.58 77.9911 203.746C78.2483 202.933 78.5816 202.233 78.9908 201.646C79.3969 201.07 79.8689 200.62 80.4071 200.298C80.9452 199.976 81.5361 199.788 82.1796 199.735C82.8129 199.678 83.4957 199.765 84.228 199.996ZM83.7585 201.375C83.1482 201.182 82.5829 201.165 82.0625 201.325C81.5421 201.485 81.0832 201.804 80.6858 202.283C80.2851 202.771 79.9578 203.417 79.7037 204.221C79.4432 205.045 79.3383 205.783 79.3889 206.437C79.4293 207.088 79.6199 207.634 79.9608 208.078C80.2882 208.528 80.7571 208.85 81.3673 209.043C81.9572 209.229 82.519 209.239 83.0528 209.072C83.5732 208.913 84.0404 208.585 84.4545 208.089C84.8583 207.59 85.1921 206.924 85.4558 206.09C85.6488 205.48 85.7547 204.915 85.7737 204.395C85.7894 203.885 85.7267 203.429 85.5855 203.027C85.4411 202.634 85.2182 202.295 84.917 202.01C84.6023 201.731 84.2161 201.52 83.7585 201.375Z"
        fill="black" />
    <path
        d="M77.7077 197.949L73.3416 207.564L71.7536 206.843L73.7978 202.342C73.1851 202.298 72.5702 202.323 71.9532 202.418C71.3221 202.518 70.717 202.677 70.138 202.894C69.5492 203.107 69.0055 203.376 68.5069 203.7C68.0082 204.024 67.5802 204.386 67.2229 204.786L65.4309 203.972C65.8483 203.518 66.3178 203.116 66.8394 202.767C67.361 202.418 67.9157 202.125 68.5035 201.888C69.0773 201.657 69.6532 201.485 70.2314 201.373C70.7999 201.256 71.3397 201.202 71.8508 201.212L71.9368 201.022C71.4706 200.811 71.0816 200.558 70.7699 200.264C70.4441 199.975 70.1835 199.646 69.9883 199.276C69.793 198.907 69.6605 198.489 69.5905 198.024C69.5109 197.554 69.4842 197.033 69.5105 196.459L69.6805 194.304L71.487 195.125L71.2545 196.759C71.193 197.41 71.2166 197.977 71.3254 198.46C71.4341 198.943 71.6576 199.367 71.9959 199.731C72.3341 200.096 72.8335 200.428 73.4939 200.728L74.3534 201.118L76.1197 197.228L77.7077 197.949Z"
        fill="black" />
    <path
        d="M65.836 192.167L56.9616 198.972L54.8355 197.575L57.5589 186.728L59.1368 187.765L56.5936 197.026L56.7675 197.14L64.2581 191.13L65.836 192.167ZM63.0506 193.055L62.3477 194.125L56.9589 190.584L57.6618 189.515L63.0506 193.055Z"
        fill="black" />
    <path
        d="M50.2889 180.282C50.8668 180.804 51.3067 181.359 51.6085 181.948C51.9104 182.537 52.0695 183.14 52.0859 183.759C52.0952 184.385 51.9613 185.019 51.6843 185.66C51.4001 186.308 50.9685 186.953 50.3894 187.595C49.8032 188.244 49.1946 188.751 48.5637 189.115C47.9248 189.472 47.2862 189.686 46.6478 189.756C46.0023 189.835 45.3721 189.768 44.7572 189.558C44.1423 189.348 43.5618 188.996 43.0156 188.503C42.596 188.124 42.2617 187.714 42.0127 187.274C41.7566 186.841 41.5944 186.4 41.5262 185.95C41.458 185.501 41.492 185.057 41.6284 184.62C41.7568 184.175 41.9922 183.755 42.3346 183.36L43.8364 184.156C43.4854 184.529 43.2821 184.913 43.2268 185.309C43.1563 185.705 43.1985 186.088 43.3532 186.458C43.508 186.827 43.7398 187.152 44.0485 187.43C44.3335 187.688 44.6606 187.883 45.0298 188.015C45.3991 188.147 45.8014 188.187 46.2367 188.135C46.657 188.083 47.1021 187.924 47.5719 187.659C48.0338 187.386 48.5078 186.981 48.994 186.442C49.616 185.754 50.0246 185.102 50.2199 184.488C50.4001 183.875 50.4051 183.304 50.2347 182.777C50.0493 182.25 49.7231 181.776 49.256 181.354C48.7889 180.932 48.3347 180.687 47.8932 180.619C47.4517 180.551 47.0317 180.61 46.6334 180.796C46.22 180.984 45.8302 181.264 45.4641 181.638L44.4946 180.395C44.8671 179.999 45.2772 179.672 45.7248 179.415C46.1652 179.166 46.6337 179.022 47.1301 178.981C47.6185 178.934 48.1286 179.013 48.6602 179.22C49.1919 179.428 49.7348 179.781 50.2889 180.282Z"
        fill="black" />
    <path
        d="M46.5673 177.137L36.217 181.371L34.5326 179.465L40.0099 169.715L41.2599 171.13L36.3731 179.397L36.5108 179.553L45.3173 175.722L46.5673 177.137ZM43.6464 177.263L42.6871 178.11L38.4179 173.278L39.3772 172.43L43.6464 177.263Z"
        fill="black" />
    <path
        d="M39.0554 168.307L30.4706 174.456L29.4551 173.038L38.0399 166.889L39.0554 168.307ZM38.7852 167.93L37.5626 168.805L34.0407 163.889L35.2633 163.013L38.7852 167.93Z"
        fill="black" />
    <path
        d="M34.1882 161.242L25.0568 166.546L24.1808 165.038L33.3122 159.734L34.1882 161.242ZM33.9551 160.841L32.6546 161.596L29.6169 156.366L30.9174 155.611L33.9551 160.841Z"
        fill="black" />
    <path
        d="M20.4571 110.228L9.92541 109.455L10.2207 105.434C10.266 104.817 10.3598 104.268 10.5021 103.786C10.6444 103.305 10.8401 102.896 11.0893 102.562C11.3385 102.227 11.6452 101.982 12.0096 101.827C12.3747 101.662 12.8019 101.597 13.2913 101.633C13.6955 101.662 14.0456 101.774 14.3417 101.966C14.6384 102.149 14.875 102.423 15.0514 102.789C15.2171 103.154 15.3214 103.627 15.3643 104.207L15.5717 104.223C15.7189 103.239 16.0322 102.54 16.5118 102.126C16.9816 101.7 17.5781 101.514 18.3015 101.567C18.9079 101.612 19.4076 101.798 19.8006 102.127C20.1837 102.443 20.4598 102.908 20.6288 103.519C20.7979 104.13 20.8484 104.899 20.7804 105.824L20.4571 110.228ZM19.1268 108.462L19.3354 105.622C19.3908 104.867 19.3099 104.294 19.0926 103.903C18.8646 103.512 18.49 103.298 17.9687 103.259C17.373 103.216 16.9078 103.433 16.5732 103.911C16.2387 104.389 16.0347 105.128 15.9612 106.128L15.8078 108.219L19.1268 108.462ZM14.595 108.129L14.7262 106.342C14.7973 105.374 14.7224 104.647 14.5014 104.16C14.2706 103.662 13.8893 103.393 13.3574 103.354C12.8361 103.316 12.4379 103.495 12.1628 103.892C11.877 104.288 11.7037 104.901 11.6427 105.731L11.4834 107.901L14.595 108.129Z"
        fill="black" />
    <path
        d="M22.386 95.5079C22.2393 96.2617 21.9884 96.9084 21.6334 97.4478C21.27 97.9747 20.8182 98.3975 20.278 98.7161C19.7399 99.0243 19.1206 99.2189 18.4202 99.2999C17.7219 99.3704 16.9592 99.3251 16.132 99.164C14.9175 98.9276 13.9521 98.5277 13.2359 97.9645C12.5092 97.3992 12.0162 96.7218 11.757 95.9324C11.4873 95.1409 11.4411 94.2897 11.6185 93.3788C11.7571 92.6669 12.0028 92.0464 12.3558 91.5174C12.6982 90.9864 13.1448 90.5626 13.6955 90.246C14.2377 89.9169 14.8705 89.7087 15.5938 89.6213C16.3067 89.5319 17.0924 89.5708 17.951 89.7379C18.7886 89.901 19.5221 90.1525 20.1514 90.4924C20.7702 90.8302 21.2702 91.2481 21.6514 91.7461C22.0326 92.2442 22.2865 92.8098 22.4132 93.443C22.5418 94.0657 22.5328 94.754 22.386 95.5079ZM20.963 95.1982C21.0853 94.57 21.0374 94.0065 20.8194 93.5076C20.6014 93.0088 20.2321 92.5891 19.7116 92.2487C19.1806 91.9062 18.5015 91.6545 17.6744 91.4934C16.8263 91.3283 16.0804 91.3081 15.4368 91.4327C14.7951 91.5468 14.2734 91.7984 13.8717 92.1875C13.4615 92.564 13.1952 93.0664 13.0729 93.6946C12.9547 94.3019 13.0088 94.8612 13.2352 95.3726C13.4532 95.8714 13.832 96.2983 14.3714 96.6533C14.9129 96.9978 15.6129 97.2536 16.4714 97.4208C17.0996 97.5431 17.673 97.5841 18.1916 97.5438C18.6998 97.5015 19.1458 97.3873 19.5298 97.2012C19.9033 97.0131 20.2147 96.7532 20.464 96.4214C20.7049 96.0771 20.8712 95.6694 20.963 95.1982Z"
        fill="black" />
    <path
        d="M25.2375 84.5342C24.9976 85.2638 24.6679 85.874 24.2483 86.3648C23.8219 86.8422 23.3209 87.2052 22.7451 87.4539C22.1726 87.6924 21.5339 87.808 20.8289 87.8008C20.1272 87.7835 19.3761 87.6433 18.5756 87.3801C17.4001 86.9938 16.4923 86.4764 15.8521 85.828C15.2017 85.1764 14.7973 84.4427 14.6387 83.6271C14.47 82.8081 14.5306 81.9578 14.8204 81.0762C15.0469 80.3872 15.3683 79.8023 15.7845 79.3216C16.1907 78.8375 16.6867 78.4728 17.2726 78.2275C17.8517 77.9688 18.5055 77.8412 19.2341 77.845C19.9526 77.8453 20.7273 77.9821 21.5582 78.2552C22.3689 78.5217 23.0652 78.8629 23.6471 79.2787C24.2189 79.6912 24.6627 80.1684 24.9787 80.7101C25.2946 81.2519 25.4759 81.8448 25.5224 82.4889C25.5723 83.1228 25.4773 83.8046 25.2375 84.5342ZM23.8643 84.0491C24.0641 83.4411 24.0871 82.876 23.9331 82.3538C23.7792 81.8316 23.4652 81.3691 22.9913 80.9663C22.5073 80.5602 21.865 80.2255 21.0644 79.9624C20.2436 79.6926 19.5061 79.5793 18.8519 79.6225C18.2011 79.6556 17.652 79.84 17.2048 80.1758C16.7508 80.4981 16.4238 80.9633 16.224 81.5713C16.0308 82.159 16.0145 82.7207 16.1753 83.2564C16.3293 83.7786 16.6517 84.2495 17.1425 84.6691C17.6367 85.0785 18.2993 85.4198 19.1302 85.693C19.7382 85.8928 20.302 86.0052 20.8215 86.03C21.331 86.0515 21.7878 85.9939 22.192 85.8573C22.5861 85.7174 22.9275 85.4984 23.2164 85.2003C23.4984 84.8888 23.7144 84.5051 23.8643 84.0491Z"
        fill="black" />
    <path
        d="M27.3487 77.977L17.7829 73.5039L18.5216 71.9241L23.0001 74.0183C23.0509 73.4062 23.0324 72.7911 22.9446 72.173C22.8516 71.5408 22.6997 70.934 22.4888 70.3526C22.2824 69.7615 22.0199 69.2149 21.7013 68.7126C21.3827 68.2104 21.0254 67.7784 20.6294 67.4165L21.4631 65.6338C21.9132 66.0563 22.3097 66.5302 22.6528 67.0557C22.9958 67.5811 23.2825 68.1391 23.5127 68.7295C23.7378 69.3058 23.9033 69.8836 24.0092 70.463C24.1195 71.0327 24.1671 71.5731 24.1519 72.0841L24.3403 72.1722C24.5572 71.7084 24.8143 71.3223 25.1116 71.0139C25.4038 70.6912 25.7358 70.4344 26.1078 70.2433C26.4798 70.0522 26.8987 69.9243 27.3647 69.8596C27.8351 69.7852 28.3571 69.7643 28.9306 69.797L31.0831 69.991L30.2427 71.7882L28.6112 71.5376C27.9605 71.4688 27.3931 71.486 26.909 71.5894C26.425 71.6928 25.9989 71.9115 25.6307 72.2457C25.2625 72.5799 24.9247 73.0755 24.6175 73.7325L24.2176 74.5876L28.0874 76.3972L27.3487 77.977Z"
        fill="black" />
    <path
        d="M33.2345 66.149L26.5279 57.2004L27.9482 55.0897L38.7638 57.9322L37.7097 59.4985L28.4776 56.8538L28.3614 57.0263L34.2885 64.5826L33.2345 66.149ZM32.3768 63.354L31.3148 62.6394L34.9147 57.2898L35.9766 58.0044L32.3768 63.354Z"
        fill="black" />
    <path
        d="M45.1859 50.7971C44.6578 51.3693 44.0977 51.8031 43.5056 52.0985C42.9135 52.3939 42.3082 52.5465 41.6896 52.5561C41.0632 52.5585 40.431 52.4177 39.7931 52.1338C39.1474 51.8425 38.5071 51.4039 37.8723 50.8179C37.2296 50.2246 36.7294 49.6105 36.3719 48.9757C36.0216 48.3329 35.8148 47.692 35.7515 47.053C35.6804 46.4066 35.7533 45.7772 35.9704 45.1646C36.1875 44.5521 36.5456 43.9754 37.0448 43.4346C37.4283 43.0192 37.8416 42.6894 38.2847 42.4452C38.72 42.1938 39.1629 42.0364 39.6132 41.9731C40.0636 41.9098 40.5068 41.9487 40.9427 42.0898C41.3858 42.223 41.803 42.463 42.1943 42.8097L41.3822 44.3028C41.0132 43.9477 40.6313 43.7403 40.2363 43.6806C39.8408 43.6058 39.4574 43.6438 39.086 43.7945C38.7146 43.9453 38.3878 44.1735 38.1056 44.4791C37.8452 44.7613 37.6468 45.0863 37.5106 45.454C37.3743 45.8218 37.33 46.2237 37.3776 46.6596C37.4246 47.0804 37.5784 47.5272 37.8388 47.9999C38.1065 48.4647 38.5068 48.9431 39.0398 49.4351C39.7217 50.0646 40.3686 50.4803 40.9806 50.6823C41.5919 50.8692 42.1623 50.8803 42.6917 50.7157C43.2204 50.5361 43.6982 50.215 44.1251 49.7526C44.552 49.2902 44.8019 48.8386 44.8748 48.3978C44.9478 47.9571 44.8932 47.5366 44.7112 47.1362C44.5285 46.7208 44.2523 46.328 43.8828 45.9578L45.1353 45.0019C45.5278 45.3787 45.8501 45.7923 46.1021 46.2427C46.3463 46.6859 46.4858 47.1558 46.5208 47.6526C46.563 48.1416 46.4777 48.6508 46.2649 49.1801C46.052 49.7095 45.6924 50.2485 45.1859 50.7971Z"
        fill="black" />
    <path
        d="M48.3441 47.0838L44.2233 36.6879L46.1481 35.0244L55.8374 40.6078L54.409 41.8423L46.1956 36.8655L46.0382 37.0015L49.7725 45.8493L48.3441 47.0838ZM48.2506 44.1617L47.4136 43.1932L52.2922 38.977L53.1291 39.9455L48.2506 44.1617Z"
        fill="black" />
    <path
        d="M57.18 39.6813L51.1251 31.0296L52.554 30.0296L58.6088 38.6813L57.18 39.6813ZM57.5601 39.4153L56.6978 38.183L61.6529 34.7153L62.5152 35.9475L57.5601 39.4153Z"
        fill="black" />
    <path
        d="M64.0503 35.0016L58.8137 25.8314L60.3282 24.9665L65.5647 34.1367L64.0503 35.0016ZM64.4532 34.7715L63.7074 33.4654L68.9594 30.4663L69.7052 31.7724L64.4532 34.7715Z"
        fill="black" />
    <path
        d="M115.725 21.4859L116.62 10.9638L120.638 11.3055C121.254 11.358 121.802 11.4581 122.282 11.606C122.762 11.7539 123.168 11.9543 123.5 12.2073C123.831 12.4604 124.073 12.7699 124.224 13.136C124.385 13.503 124.445 13.931 124.403 14.4199C124.369 14.8238 124.254 15.1726 124.058 15.4663C123.872 15.761 123.595 15.9944 123.227 16.1665C122.86 16.328 122.386 16.4268 121.805 16.463L121.787 16.6703C122.769 16.8287 123.465 17.1501 123.873 17.6345C124.293 18.1091 124.472 18.7078 124.411 19.4305C124.359 20.0363 124.167 20.5338 123.834 20.923C123.513 21.3025 123.046 21.5732 122.432 21.7352C121.819 21.8971 121.05 21.9387 120.126 21.8601L115.725 21.4859ZM117.507 20.1761L120.345 20.4175C121.099 20.4817 121.673 20.4073 122.066 20.1945C122.459 19.9711 122.678 19.599 122.723 19.0782C122.773 18.483 122.561 18.0154 122.087 17.6753C121.613 17.3352 120.876 17.1227 119.877 17.0377L117.789 16.8601L117.507 20.1761ZM117.892 15.6485L119.677 15.8003C120.645 15.8826 121.373 15.8161 121.862 15.6008C122.363 15.3757 122.636 14.9975 122.681 14.4661C122.726 13.9453 122.551 13.5451 122.157 13.2654C121.764 12.975 121.153 12.7946 120.324 12.7241L118.156 12.5397L117.892 15.6485Z"
        fill="black" />
    <path
        d="M130.452 23.5767C129.7 23.4213 129.056 23.163 128.521 22.8019C127.998 22.4325 127.581 21.9759 127.268 21.4321C126.966 20.8905 126.779 20.269 126.706 19.5677C126.644 18.8686 126.698 18.1065 126.868 17.2812C127.118 16.0695 127.529 15.1087 128.101 14.399C128.674 13.6789 129.357 13.1937 130.15 12.9435C130.944 12.6829 131.796 12.6464 132.705 12.8342C133.415 12.981 134.033 13.2339 134.557 13.5928C135.084 13.9413 135.503 14.3927 135.813 14.947C136.136 15.4929 136.337 16.1281 136.416 16.8524C136.498 17.5663 136.45 18.3515 136.273 19.2081C136.1 20.0437 135.84 20.7743 135.493 21.3996C135.148 22.0146 134.725 22.5098 134.222 22.8852C133.72 23.2607 133.151 23.5081 132.517 23.6275C131.893 23.749 131.204 23.7321 130.452 23.5767ZM130.778 22.1573C131.405 22.2868 131.969 22.2454 132.47 22.0331C132.972 21.8208 133.396 21.4564 133.742 20.9398C134.09 20.4127 134.35 19.7366 134.52 18.9114C134.695 18.0652 134.724 17.3196 134.607 16.6746C134.5 16.0317 134.254 15.5071 133.87 15.1009C133.498 14.6865 132.999 14.4145 132.372 14.285C131.766 14.1598 131.206 14.2075 130.692 14.4281C130.191 14.6403 129.76 15.0141 129.399 15.5495C129.048 16.087 128.784 16.784 128.607 17.6406C128.478 18.2673 128.43 18.8402 128.465 19.3593C128.501 19.8678 128.61 20.3152 128.792 20.7012C128.976 21.0769 129.232 21.3912 129.561 21.6444C129.902 21.8892 130.308 22.0602 130.778 22.1573Z"
        fill="black" />
    <path
        d="M141.434 26.559C140.707 26.311 140.1 25.9744 139.614 25.5493C139.142 25.1175 138.784 24.6123 138.542 24.0338C138.31 23.4587 138.202 22.8187 138.217 22.1138C138.242 21.4124 138.391 20.6629 138.663 19.8654C139.063 18.6944 139.59 17.7925 140.246 17.1596C140.905 16.5167 141.643 16.1205 142.461 15.9712C143.281 15.8118 144.131 15.8819 145.009 16.1817C145.696 16.416 146.277 16.7439 146.753 17.1656C147.232 17.5772 147.591 18.0773 147.83 18.6659C148.082 19.2479 148.202 19.9032 148.19 20.6317C148.182 21.3501 148.036 22.1232 147.754 22.951C147.478 23.7586 147.129 24.451 146.707 25.0282C146.288 25.5952 145.806 26.0337 145.26 26.3435C144.715 26.6533 144.12 26.8278 143.476 26.8671C142.841 26.9098 142.16 26.8071 141.434 26.559ZM141.934 25.1914C142.54 25.3981 143.105 25.4275 143.629 25.2794C144.153 25.1314 144.619 24.8227 145.027 24.3533C145.438 23.8739 145.78 23.2355 146.052 22.438C146.331 21.6203 146.453 20.8841 146.417 20.2294C146.392 19.5782 146.213 19.0271 145.883 18.5761C145.565 18.1185 145.104 17.7863 144.498 17.5796C143.913 17.3798 143.351 17.3572 142.814 17.5119C142.29 17.66 141.815 17.977 141.39 18.4631C140.975 18.9526 140.626 19.6113 140.344 20.439C140.137 21.0447 140.019 21.6072 139.988 22.1265C139.961 22.6356 140.013 23.0931 140.145 23.4988C140.281 23.8944 140.496 24.2383 140.79 24.5305C141.099 24.8161 141.48 25.0364 141.934 25.1914Z"
        fill="black" />
    <path
        d="M147.986 28.7524L152.566 19.237L154.137 19.9934L151.993 24.4483C152.605 24.5058 153.22 24.4942 153.839 24.4133C154.472 24.3274 155.081 24.1822 155.665 23.9778C156.258 23.778 156.807 23.5216 157.313 23.2087C157.819 22.8957 158.255 22.5432 158.621 22.1513L160.394 23.0047C159.967 23.4501 159.489 23.8414 158.959 24.1785C158.43 24.5157 157.869 24.7961 157.276 25.0198C156.697 25.2384 156.118 25.3974 155.537 25.4968C154.966 25.6009 154.425 25.6424 153.915 25.6215L153.824 25.8089C154.286 26.031 154.669 26.2924 154.974 26.5931C155.293 26.8888 155.547 27.2237 155.733 27.5978C155.92 27.9719 156.044 28.3923 156.103 28.8589C156.172 29.3302 156.187 29.8523 156.148 30.4254L155.93 32.5756L154.143 31.7152L154.411 30.0867C154.487 29.4367 154.476 28.8691 154.378 28.384C154.281 27.8988 154.067 27.4703 153.737 27.0984C153.406 26.7265 152.915 26.3832 152.261 26.0687L151.41 25.6593L149.558 29.5087L147.986 28.7524Z"
        fill="black" />
    <path
        d="M159.749 34.7752L168.771 28.1673L170.866 29.6107L167.905 40.3944L166.35 39.3232L169.096 30.1206L168.925 30.0026L161.304 35.8464L159.749 34.7752ZM162.553 33.9482L163.28 32.8942L168.589 36.5526L167.863 37.6066L162.553 33.9482Z"
        fill="black" />
    <path
        d="M174.971 46.9022C174.405 46.3679 173.977 45.8031 173.688 45.2078C173.399 44.6125 173.253 44.0056 173.25 43.3869C173.255 42.7605 173.403 42.1299 173.694 41.4952C173.992 40.8527 174.437 40.2172 175.03 39.5888C175.63 38.9526 176.25 38.4592 176.889 38.1086C177.535 37.7653 178.178 37.5655 178.818 37.5092C179.465 37.4451 180.094 37.5249 180.704 37.7487C181.314 37.9724 181.887 38.3368 182.422 38.8419C182.833 39.2298 183.159 39.6467 183.398 40.0925C183.645 40.5305 183.797 40.975 183.855 41.4261C183.914 41.8771 183.87 42.3198 183.724 42.7542C183.586 43.1958 183.342 43.6104 182.991 43.9979L181.507 43.1695C181.866 42.8044 182.077 42.4248 182.141 42.0305C182.22 41.6359 182.187 41.252 182.04 40.879C181.893 40.506 181.669 40.1767 181.366 39.8912C181.087 39.6277 180.764 39.4258 180.398 39.2856C180.031 39.1453 179.63 39.0966 179.194 39.1395C178.772 39.1819 178.324 39.3308 177.848 39.5861C177.381 39.8487 176.898 40.2438 176.4 40.7713C175.763 41.4463 175.341 42.0887 175.132 42.6984C174.938 43.3077 174.921 43.8779 175.08 44.409C175.254 44.9397 175.57 45.421 176.027 45.8529C176.485 46.2847 176.934 46.5396 177.374 46.6173C177.814 46.6951 178.235 46.6451 178.637 46.4674C179.054 46.2893 179.45 46.0174 179.824 45.6519L180.767 46.9148C180.386 47.3032 179.969 47.6209 179.515 47.868C179.07 48.1073 178.598 48.2418 178.101 48.2713C177.612 48.3082 177.103 48.2173 176.576 47.9987C176.049 47.7801 175.514 47.4146 174.971 46.9022Z"
        fill="black" />
    <path
        d="M178.664 50.1249L189.104 46.1179L190.747 48.0607L185.058 57.6885L183.839 56.2466L188.905 48.088L188.771 47.9292L179.883 51.5667L178.664 50.1249ZM181.587 50.0633L182.565 49.237L186.727 54.1612L185.75 54.9876L181.587 50.0633Z"
        fill="black" />
    <path
        d="M185.988 59.0789L194.705 53.1194L195.689 54.5592L186.972 60.5187L185.988 59.0789ZM186.249 59.462L187.491 58.6132L190.904 63.6061L189.663 64.4548L186.249 59.462Z"
        fill="black" />
    <path
        d="M190.616 66.0646L199.843 60.9299L200.691 62.4538L191.464 67.5885L190.616 66.0646ZM190.842 66.4701L192.156 65.7387L195.097 71.0236L193.782 71.7549L190.842 66.4701Z"
        fill="black" />
    <circle cx="112" cy="112" r="55" fill="url(#paint0_linear_236_5798)" fill-opacity="0.23" />
    <circle cx="112" cy="112" r="44" fill="white" />
    <path fill-rule="evenodd" clip-rule="evenodd"
        d="M106.5 102.375C105.741 102.375 105.125 101.759 105.125 101C105.125 100.241 105.741 99.625 106.5 99.625H123C123.759 99.625 124.375 100.241 124.375 101V117.5C124.375 118.259 123.759 118.875 123 118.875C122.241 118.875 121.625 118.259 121.625 117.5V104.32L101.972 123.972C101.435 124.509 100.565 124.509 100.028 123.972C99.4908 123.435 99.4908 122.565 100.028 122.028L119.68 102.375H106.5Z"
        fill="black" />
    <path
        d="M86.5641 15.779C85.2992 17.3701 85.3097 19.3529 86.5904 20.6882C88.7597 22.95 92.3609 21.7291 92.7686 18.5934C93.0088 16.7457 91.9205 15.2344 89.9805 14.7218C88.9019 14.4366 87.2167 14.9581 86.5641 15.779Z"
        fill="black" />
    <path
        d="M82.1489 21.9014C83.1842 24.0853 85.894 25.9317 88.4555 26.1985C92.1636 26.5849 95.8827 24.0601 96.8975 20.4674L97.0963 19.7639L96.5941 20.5791C95.4606 22.419 93.5793 23.6121 91.6408 23.7206C89.026 23.8668 87.1013 22.7318 85.5266 20.1151L85.2543 19.6625L83.4705 20.2945L81.6866 20.9265L82.1489 21.9014Z"
        fill="black" />
    <path
        d="M85.1248 11.338C83.9487 12.0365 82.8516 13.2461 82.1625 14.6037C81.6471 15.6196 81.4425 16.4748 81.4425 16.4748C81.4425 16.4748 81.5854 16.2851 81.8516 15.8985C81.8516 15.8985 83.447 13.8169 85.2466 13.1801C86.6387 12.6877 86.9687 12.6387 87.9388 12.7811C90.0205 13.0864 91.7587 14.2681 92.6571 15.9882L93.0766 16.7914L94.9247 16.194L96.7727 15.5963L96.3227 14.647C95.628 13.1817 94.1074 11.7375 92.4893 11.0064C89.9913 9.87754 87.3861 9.99482 85.1248 11.338Z"
        fill="black" />
    <path
        d="M207.383 85.4512C205.863 84.8063 204.313 85.2452 203.545 86.5378C202.245 88.7275 203.983 91.2819 206.527 90.9201C208.026 90.707 208.973 89.5267 208.953 87.8965C208.942 86.99 208.167 85.7839 207.383 85.4512Z"
        fill="black" />
    <path
        d="M201.631 83.3239C200.146 84.6087 199.289 87.1313 199.636 89.1948C200.139 92.1819 202.923 94.5454 205.956 94.5598L206.55 94.5626L205.803 94.3465C204.116 93.8586 202.774 92.6448 202.268 91.1505C201.585 89.1351 202.056 87.3817 203.763 85.5805L204.058 85.2691L203.176 84.0097L202.294 82.7503L201.631 83.3239Z"
        fill="black" />
    <path
        d="M210.548 83.3599C209.745 82.5908 208.56 81.9945 207.347 81.7498C206.44 81.5669 205.726 81.5924 205.726 81.5924C205.726 81.5924 205.906 81.6631 206.266 81.7875C206.266 81.7875 208.242 82.5846 209.132 83.8553C209.82 84.8383 209.93 85.086 210.029 85.8765C210.242 87.5726 209.694 89.1901 208.542 90.2671L208.005 90.77L208.874 92.0872L209.743 93.4043L210.389 92.8458C211.385 91.9837 212.185 90.4795 212.406 89.0539C212.748 86.853 212.09 84.8387 210.548 83.3599Z"
        fill="black" />
    <path
        d="M138.83 206.713C139.876 205.434 139.889 203.823 138.864 202.724C137.126 200.862 134.187 201.814 133.821 204.357C133.605 205.855 134.472 207.095 136.043 207.533C136.916 207.777 138.291 207.372 138.83 206.713Z"
        fill="black" />
    <path
        d="M142.486 201.788C141.669 200.002 139.488 198.472 137.41 198.226C134.402 197.871 131.352 199.881 130.487 202.788L130.318 203.358L130.735 202.701C131.677 201.219 133.218 200.271 134.794 200.204C136.92 200.114 138.471 201.058 139.721 203.201L139.938 203.572L141.394 203.079L142.85 202.585L142.486 201.788Z"
        fill="black" />
    <path
        d="M139.95 210.337C140.913 209.782 141.818 208.812 142.393 207.717C142.823 206.897 142.999 206.204 142.999 206.204C142.999 206.204 142.881 206.357 142.66 206.668C142.66 206.668 141.341 208.341 139.872 208.839C138.735 209.223 138.466 209.259 137.68 209.133C135.992 208.862 134.593 207.882 133.882 206.475L133.551 205.817L132.042 206.282L130.534 206.747L130.889 207.523C131.437 208.722 132.657 209.912 133.963 210.524C135.98 211.469 138.098 211.403 139.95 210.337Z"
        fill="black" />
    <path
        d="M15.8367 135.954C17.1721 136.926 18.7813 136.848 19.8209 135.763C21.5818 133.923 20.4658 131.042 17.9063 130.82C16.3981 130.689 15.209 131.625 14.8601 133.217C14.6659 134.103 15.1477 135.453 15.8367 135.954Z"
        fill="black" />
    <path
        d="M20.9596 139.326C22.6965 138.41 24.1014 136.146 24.2293 134.058C24.4144 131.034 22.236 128.103 19.2844 127.403L18.7065 127.266L19.3856 127.646C20.9185 128.502 21.9522 129.988 22.1074 131.558C22.3167 133.675 21.4621 135.277 19.3925 136.646L19.0346 136.883L19.6094 138.309L20.1843 139.735L20.9596 139.326Z"
        fill="black" />
    <path
        d="M12.2815 137.276C12.8893 138.207 13.9092 139.056 15.0352 139.568C15.8777 139.951 16.579 140.087 16.579 140.087C16.579 140.087 16.4201 139.978 16.097 139.775C16.097 139.775 14.352 138.552 13.7727 137.114C13.3247 136.001 13.2735 135.734 13.3554 134.942C13.5312 133.242 14.4302 131.79 15.7953 131.001L16.4328 130.632L15.8838 129.153L15.3346 127.673L14.5796 128.072C13.4142 128.686 12.2946 129.971 11.7572 131.31C10.9273 133.376 11.1128 135.487 12.2815 137.276Z"
        fill="black" />
    <defs>
        <linearGradient id="paint0_linear_236_5798" x1="112" y1="57" x2="112" y2="167"
            gradientUnits="userSpaceOnUse">
            <stop stop-color="#DBF11F" />
            <stop offset="1" stop-color="#77A21C" />
        </linearGradient>
    </defs>
</svg>