<svg viewBox="0 0 375 481" fill="none" xmlns="http://www.w3.org/2000/svg">
    <path d="M115 33.1337L98.4998 16.5669H-50L-33.4998 33.1337H115Z" fill="#C8E21F" />
    <path d="M98.4663 0V16.5668L115 33.1337V16.5668L98.4663 0Z" fill="#80A91D" />
    <rect x="-31.9053" width="130.287" height="16.8267" fill="#E6FF75" />
    <path d="M260 33.1337L276.5 16.5669H425L408.5 33.1337H260Z" fill="#C8E21F" />
    <path d="M276.534 0V16.5668L260 33.1337V16.5668L276.534 0Z" fill="#80A91D" />
    <rect width="130.287" height="16.8267" transform="matrix(-1 0 0 1 406.905 0)" fill="#E6FF75" />
    <path
        d="M362.418 415.835V362.032H454.804V340.51H348.334L334.251 351.271V405.075H320.167V243.664H390.585L404.668 232.903V168.339H376.502V222.142H306.083L292 232.903V426.596H348.334L362.418 415.835Z"
        fill="#E6FF75" />
    <path d="M362.472 415.794H306.094L292 426.596H348.378L362.472 415.794Z" fill="#C8E21F" />
    <path d="M306.138 222.185V415.838L292 426.597V232.943L306.138 222.185Z" fill="#80A91D" />
    <path d="M348.333 340.51V404.992H334.195V351.257L348.333 340.51Z" fill="#80A91D" />
    <path d="M362.472 361.949V351.312H409.237H456V361.949H362.472Z" fill="#80A91D" />
    <path
        d="M12.5823 232.761V286.565H-79.8039V308.086H26.666L40.7492 297.326V243.522H54.833L54.833 404.933H-15.5853L-29.6685 415.693V480.258H-1.5015V426.454H68.9168L83 415.693L83 222H26.666L12.5823 232.761Z"
        fill="#E6FF75" />
    <path d="M12.5278 232.803H68.9059L83 222H26.6224L12.5278 232.803Z" fill="#C8E21F" />
    <path d="M68.8621 426.412L68.8621 232.758L83 222L83 415.653L68.8621 426.412Z" fill="#80A91D" />
    <path d="M26.6667 308.086L26.6667 243.605H40.8047L40.8047 297.339L26.6667 308.086Z"
        fill="#80A91D" />
    <path d="M12.5283 286.648V297.284H-34.2374H-80.9996V286.648H12.5283Z" fill="#80A91D" />
</svg>