<svg width="1196" height="818" viewBox="0 0 1196 818" fill="none" xmlns="http://www.w3.org/2000/svg">
    <path d="M546 660H597.472L648.944 680.556V721.667H546V660Z" fill="#E6FF75" />
    <path d="M598.197 660V721.667H648.944V668.08L598.197 660Z" fill="#C8E21F" />
    <path
        d="M104 721.765H780H1092V384.942V96.2363H104V721.765ZM883.999 818H51.9988L0 769.884V0H1144L1196 48.1182V481.178V818H883.999Z"
        fill="#E6FF75" />
    <path d="M1144 -9.15527e-05V342.375H1196V48.1165L1144 -9.15527e-05Z" fill="#C8E21F" />
    <path d="M1144 336.824V769.882L1196 818V336.824H1144Z" fill="#C8E21F" />
    <path d="M104 96.2358L52 48.1176V721.765H104V96.2358Z" fill="#C8E21F" />
    <path d="M747 96.2354H1092V48.1177H747V96.2354Z" fill="#80A91D" />
    <path d="M780 48.1177V96.2354H104.001L52 48.1177H780Z" fill="#80A91D" />
    <path d="M1196 818L1144 769.882H0L51.9988 818H1196Z" fill="#80A91D" />
    <path d="M154 398H205.472L256.944 505.89V721.667H154V398Z" fill="#E6FF75" />
    <path d="M206.197 398V721.667H256.944V440.407L206.197 398Z" fill="#C8E21F" />
    <path d="M335 499H386.472L437.944 573.223V721.667H335V499Z" fill="#E6FF75" />
    <path d="M387.197 499V721.667H437.944V528.174L387.197 499Z" fill="#C8E21F" />
    <path d="M757 499H808.472L859.944 573.223V721.667H757V499Z" fill="#E6FF75" />
    <path d="M809.197 499V721.667H859.944V528.174L809.197 499Z" fill="#C8E21F" />
    <path d="M938 398H989.472L1040.94 505.89V721.667H938V398Z" fill="#E6FF75" />
    <path d="M990.197 398V721.667H1040.94V440.407L990.197 398Z" fill="#C8E21F" />
</svg>