<svg width="1196" height="818" viewBox="0 0 1196 818" fill="none" xmlns="http://www.w3.org/2000/svg">
    <path
        d="M104 721.765H780H1092V384.942V96.2363H104V721.765ZM883.999 818H51.9988L0 769.884V0H1144L1196 48.1182V481.178V818H883.999Z"
        fill="#E6FF75" />
    <path d="M1144 -9.15527e-05V342.375H1196V48.1165L1144 -9.15527e-05Z" fill="#C8E21F" />
    <path d="M1144 336.824V769.882L1196 818V336.824H1144Z" fill="#C8E21F" />
    <path d="M104 96.2358L52 48.1176V721.765H104V96.2358Z" fill="#C8E21F" />
    <path d="M747 96.2354H1092V48.1177H747V96.2354Z" fill="#80A91D" />
    <path d="M780 48.1177V96.2354H104.001L52 48.1177H780Z" fill="#80A91D" />
    <path d="M1196 818L1144 769.882H0L51.9988 818H1196Z" fill="#80A91D" />


</svg>