<svg width="64" height="63" viewBox="0 0 64 63" fill="none" xmlns="http://www.w3.org/2000/svg">
    <path
        d="M25.371 18.9865C18.5841 23.2282 16.016 30.601 19.0134 37.2411C24.0907 48.4882 39.0619 48.692 44.698 37.5901C48.0193 31.0486 45.9673 24.0084 39.4411 19.5547C35.8128 17.0779 28.8727 16.7978 25.371 18.9865Z"
        fill="#DBF11F" />
    <path
        d="M0.933658 35.9038C1.90479 45.3704 9.53397 55.7862 18.6902 60.145C31.9444 66.4547 49.0677 61.9743 57.5583 49.9745L59.2208 47.625L56.2853 49.99C49.659 55.3283 41.108 57.2829 33.7703 55.1364C23.8735 52.2409 18.2226 45.4979 15.8187 33.7151L15.4035 31.6776H7.95174H0.5L0.933658 35.9038Z"
        fill="#DBF11F" />
    <path
        d="M25.8688 0.611016C20.5853 1.65719 14.9227 4.70383 10.5802 8.83665C7.33148 11.9293 5.44757 14.8343 5.44757 14.8343C5.44757 14.8343 6.22727 14.3182 7.7235 13.2332C7.7235 13.2332 16.382 7.60525 23.8985 7.60822C29.7128 7.61118 31.002 7.86309 34.4153 9.66722C41.7397 13.5378 46.6373 20.209 47.7101 27.7744L48.2107 31.3071L55.8554 31.5198L63.5 31.7317L63.0781 27.6166C62.4265 21.2648 58.6819 13.9053 53.6377 9.06411C45.851 1.58976 36.0277 -1.40057 25.8688 0.611016Z"
        fill="#DBF11F" />
</svg>