<svg width="35" height="35" viewBox="0 0 35 35" fill="none" xmlns="http://www.w3.org/2000/svg">
    <path
        d="M13.2047 10.8387C9.87491 13.5899 9.0245 17.7166 11.0995 21.0562C14.6144 26.7128 22.6383 25.7588 24.8653 19.4192C26.1777 15.6837 24.5801 12.063 20.7724 10.1437C18.6554 9.07621 14.9226 9.41915 13.2047 10.8387Z"
        fill="white" />
    <path
        d="M1.33206 21.6244C2.52377 26.6201 7.34487 31.6507 12.5528 33.3325C20.0918 35.767 28.9345 32.1543 32.6248 25.1316L33.3474 23.7567L31.9449 25.2303C28.7789 28.5568 24.343 30.2096 20.265 29.5822C14.7647 28.7359 11.2627 25.5296 9.14004 19.3966L8.77322 18.3361L4.7866 18.8652L0.799985 19.3943L1.33206 21.6244Z"
        fill="white" />
    <path
        d="M12.1662 0.972653C9.41392 1.90749 6.60079 3.93947 4.57103 6.45883C3.05258 8.34402 2.25097 10.0319 2.25097 10.0319C2.25097 10.0319 2.63146 9.70047 3.35489 9.0138C3.35489 9.0138 7.5875 5.3881 11.609 4.85599C14.7198 4.44474 15.4274 4.48798 17.3816 5.21081C21.5749 6.76147 24.6687 9.98276 25.7798 13.9541L26.2985 15.8085L30.4034 15.3794L34.5083 14.95L33.9904 12.7784C33.1908 9.42652 30.6649 5.75512 27.6226 3.52331C22.926 0.0774743 17.4584 -0.824846 12.1662 0.972653Z"
        fill="white" />
</svg>